<svg width="79" height="79" viewBox="0 0 79 79" fill="none" xmlns="http://www.w3.org/2000/svg">
<path d="M39.2143 0C17.5908 0 0 17.5913 0 39.214C0 60.8374 17.5908 78.4294 39.2143 78.4294C60.8364 78.4294 78.4286 60.8374 78.4286 39.214C78.4286 17.5913 60.8364 0 39.2143 0ZM50.2974 24.755C50.2974 24.9407 50.2236 25.1188 50.0923 25.2501C49.961 25.3814 49.7829 25.4551 49.5972 25.4551L45.1395 25.4579C42.1983 25.4579 41.6606 26.6033 41.6606 28.8591V33.5388H49.306C49.5069 33.5388 49.6988 33.6256 49.8311 33.7768C49.9634 33.9281 50.025 34.129 50.0005 34.3285L48.9118 42.7531C48.89 42.9219 48.8075 43.077 48.6797 43.1894C48.5519 43.3017 48.3875 43.3637 48.2173 43.3636H41.6606V64.2827C41.6606 64.4684 41.5868 64.6464 41.4555 64.7777C41.3242 64.909 41.1461 64.9828 40.9604 64.9828H32.262C32.0763 64.9828 31.8982 64.909 31.7669 64.7777C31.6356 64.6464 31.5619 64.4684 31.5619 64.2827V43.3636H24.9842C24.7985 43.3636 24.6204 43.2899 24.4891 43.1586C24.3578 43.0273 24.284 42.8492 24.284 42.6635V34.2389C24.284 34.0532 24.3578 33.8751 24.4891 33.7438C24.6204 33.6125 24.7985 33.5388 24.9842 33.5388H31.5619V28.0253C31.5619 20.723 35.9811 16.1876 43.0965 16.1876C46.1554 16.1876 48.8586 16.4151 49.689 16.525C49.8572 16.5473 50.0117 16.6299 50.1236 16.7575C50.2356 16.8852 50.2973 17.0491 50.2974 17.2189V24.755Z" fill="#231F20"/>
</svg>
