<svg width="79" height="79" viewBox="0 0 79 79" fill="none" xmlns="http://www.w3.org/2000/svg">
<path d="M39.2515 47.1418C43.5839 47.1418 47.0979 43.7384 47.0979 39.5418C47.0979 35.341 43.5832 31.9404 39.2515 31.9404C34.9205 31.9404 31.408 35.341 31.408 39.5418C31.408 43.7377 34.9205 47.1418 39.2515 47.1418ZM48.1397 32.1609H52.554C53.0202 32.1595 53.4669 31.9735 53.7965 31.6437C54.126 31.3139 54.3116 30.867 54.3127 30.4008V26.1937C54.3116 25.7273 54.1261 25.2803 53.7966 24.9503C53.4671 24.6203 53.0204 24.434 52.554 24.4321H48.1397C47.6732 24.4336 47.2263 24.6198 46.8967 24.9499C46.5671 25.28 46.3817 25.7272 46.381 26.1937V30.4008C46.3817 30.8672 46.5672 31.3142 46.8968 31.6441C47.2264 31.974 47.6733 32.1598 48.1397 32.1609Z" fill="#231F20"/>
<path d="M51.3951 39.966C51.3951 46.4604 45.9565 51.7297 39.2507 51.7297C32.5462 51.7297 27.109 46.4611 27.109 39.966C27.109 38.7988 27.2868 37.6758 27.6124 36.6123H24.0256V53.1131C24.0256 53.968 24.723 54.6626 25.5778 54.6626H52.7765C53.1879 54.6627 53.5825 54.4997 53.8738 54.2092C54.165 53.9187 54.3292 53.5245 54.3301 53.1131V36.6123H50.8924C51.2187 37.6758 51.3951 38.7988 51.3951 39.966Z" fill="#231F20"/>
<path d="M39.2129 0C17.5908 0 0 17.5917 0 39.2147C0 60.8384 17.5908 78.4308 39.2129 78.4308C60.8364 78.4308 78.4286 60.8384 78.4286 39.2147C78.4286 17.5917 60.8364 0 39.2129 0ZM58.7452 54.1416C58.7452 56.8988 56.4886 59.1532 53.7322 59.1532H24.6992C21.9421 59.1532 19.6849 56.8988 19.6849 54.1416V25.109C19.6849 22.3505 21.9428 20.0946 24.6992 20.0946H53.7329C56.49 20.0946 58.7458 22.3505 58.7458 25.109L58.7452 54.1416Z" fill="#231F20"/>
</svg>
