<svg width="50" height="50" viewBox="0 0 50 50" fill="none" xmlns="http://www.w3.org/2000/svg">
<path d="M0.75 48.75V13.7219V0.75H14.1087V39.5118H42.8813V48.75H0.75Z" fill="#C56520" stroke="black" stroke-width="1.5"/>
<path d="M6.64514 30.7358C6.64514 30.2191 6.52937 29.3662 6.35429 28.3717C5.86204 25.5757 2.20408 25.0256 0.75 27.464V29.581C0.75 29.581 1.69118 26.8744 3.10294 26.8744C4.51471 26.8744 5.23896 29.0036 5.13079 33.1608C5.02263 37.318 8.8085 30.3124 10.1065 28.5032C11.4045 26.6941 13.4597 33.5458 14.5414 31.4672C15.6231 29.3886 21.0315 23.0758 21.0315 25.5393C21.0315 28.0028 21.8427 32.8914 24.7632 34.0077C27.6838 35.1239 30.9829 28.5417 32.4972 27.6949C32.653 27.6078 32.8019 27.5728 32.9437 27.5802C35.3022 27.7024 36.5644 30.9283 38.9261 30.9283H48.0193C48.9387 30.9283 49.0469 29.581 48.0193 29.581H40.0343C37.8363 29.581 36.0075 28.0718 34.8545 26.2005C34.3462 25.3756 33.7406 24.7099 33.0922 24.654C31.3074 24.5 27.8397 32.5834 25.6827 32.0061C23.5256 31.4287 21.9509 26.0397 22.7081 22.1905C23.4652 18.3413 14.9741 27.7719 14.5414 29.1576C14.1087 30.5433 12.1617 27.464 11.2964 25.5393C10.431 23.6147 6.64514 32.8549 6.64514 30.7358Z" fill="black" stroke="black"/>
</svg>
