<svg width="46" height="64" viewBox="0 0 46 64" fill="none" xmlns="http://www.w3.org/2000/svg">
<path d="M0.75 62.75V17.5054V0.75H13.0307V50.8174H39.4814V62.75H0.75Z" fill="#C56520" stroke="black" stroke-width="1.5"/>
<path d="M6.16941 39.4814C6.16941 38.7207 6.03118 37.396 5.83154 35.8795C5.47309 33.1566 1.823 32.727 0.75 35.2552V37.9898C0.75 37.9898 1.61522 34.4937 2.91306 34.4937C4.2109 34.4937 4.8767 37.244 4.77727 42.6137C4.67783 47.9834 8.15818 38.9344 9.35144 36.5976C10.5447 34.2608 12.434 43.1109 13.4284 40.426C14.4228 37.7412 19.3947 29.5872 19.3947 32.7692C19.3947 35.9513 20.1405 42.2657 22.8254 43.7075C25.5102 45.1494 28.5431 36.6474 29.9352 35.5535C30.2579 35.3 30.5485 35.3884 30.8046 35.6737C32.4565 37.5144 33.9501 39.73 36.4234 39.73H44.2047C45.0499 39.73 45.1494 37.9898 44.2047 37.9898H37.4934C35.1419 37.9898 33.1734 36.3214 32.3134 34.1328C31.8071 32.844 31.1709 31.7092 30.4822 31.6257C28.8414 31.4268 25.6536 41.8679 23.6706 41.1221C21.6876 40.3763 20.24 33.4156 20.936 28.4437C21.6321 23.4717 13.8262 35.653 13.4284 37.4429C13.0307 39.2328 11.2408 35.2552 10.4453 32.7692C9.64976 30.2833 6.16941 42.2185 6.16941 39.4814Z" fill="black" stroke="black"/>
</svg>
