<svg width="48" height="28" viewBox="0 0 48 28" fill="none" xmlns="http://www.w3.org/2000/svg">
<path d="M44.9335 11.667H2.50362C1.12091 11.667 0 12.6594 0 13.8837V14.117C0 15.3412 1.12091 16.3337 2.50362 16.3337H44.9335C46.3162 16.3337 47.4371 15.3412 47.4371 14.117V13.8837C47.4371 12.6594 46.3162 11.667 44.9335 11.667Z" fill="black"/>
<path d="M44.9335 23.3335H2.50362C1.12091 23.3335 0 24.3259 0 25.5502V25.7835C0 27.0077 1.12091 28.0002 2.50362 28.0002H44.9335C46.3162 28.0002 47.4371 27.0077 47.4371 25.7835V25.5502C47.4371 24.3259 46.3162 23.3335 44.9335 23.3335Z" fill="black"/>
<path d="M44.9335 0H2.50362C1.12091 0 0 0.992435 0 2.21667V2.45C0 3.67423 1.12091 4.66667 2.50362 4.66667H44.9335C46.3162 4.66667 47.4371 3.67423 47.4371 2.45V2.21667C47.4371 0.992435 46.3162 0 44.9335 0Z" fill="black"/>
</svg>
