<svg width="164" height="32" viewBox="0 0 164 32" fill="none" xmlns="http://www.w3.org/2000/svg">
<rect width="29.6" height="32" fill="black"/>
<path d="M14.4001 4L17.4401 13.28H27.2001L19.2801 19.04L22.3201 28.32L14.4001 22.56L6.4801 28.32L9.5201 19.04L1.6001 13.28H11.3601L14.4001 4Z" fill="white"/>
<path d="M19.2801 19.04L14.4001 22.56L19.9201 21.04L19.2801 19.04Z" fill="black"/>
<rect x="33.6001" width="29.6" height="32" fill="black"/>
<path d="M48.0002 4L51.0402 13.28H60.8002L52.8802 19.04L55.9202 28.32L48.0002 22.56L40.0802 28.32L43.1202 19.04L35.2002 13.28H44.9602L48.0002 4Z" fill="white"/>
<path d="M52.8802 19.04L48.0002 22.56L53.5202 21.04L52.8802 19.04Z" fill="black"/>
<rect x="67.2" width="29.6" height="32" fill="black"/>
<path d="M81.6 4L84.64 13.28H94.4L86.48 19.04L89.52 28.32L81.6 22.56L73.68 28.32L76.72 19.04L68.8 13.28H78.56L81.6 4Z" fill="white"/>
<path d="M86.4801 19.04L81.6001 22.56L87.1201 21.04L86.4801 19.04Z" fill="black"/>
<rect x="100.8" width="29.6" height="32" fill="black"/>
<path d="M115.2 4L118.24 13.28H128L120.08 19.04L123.12 28.32L115.2 22.56L107.28 28.32L110.32 19.04L102.4 13.28H112.16L115.2 4Z" fill="white"/>
<path d="M120.08 19.04L115.2 22.56L120.72 21.04L120.08 19.04Z" fill="black"/>
<rect x="134.4" width="29.6" height="32" fill="black"/>
<path d="M148.8 4L151.84 13.28H161.6L153.68 19.04L156.72 28.32L148.8 22.56L140.88 28.32L143.92 19.04L136 13.28H145.76L148.8 4Z" fill="white"/>
<path d="M153.68 19.04L148.8 22.56L154.32 21.04L153.68 19.04Z" fill="black"/>
</svg>
