<svg width="81" height="81" viewBox="0 0 81 81" fill="none" xmlns="http://www.w3.org/2000/svg">
<path d="M40.4993 0C18.1682 0 0 18.1679 0 40.4993C0 62.8314 18.1682 81 40.4993 81C62.8318 81 81 62.8314 81 40.4993C80.9993 18.1679 62.831 0 40.4993 0ZM62.0544 29.9366C60.9806 31.5447 59.6451 32.9617 58.1035 34.129C58.11 34.364 58.1144 34.599 58.1144 34.834C58.1144 46.6447 49.1271 58.861 34.087 58.861C29.4972 58.8632 25.0035 57.5471 21.1401 55.0692C21.0024 54.9813 20.8986 54.8492 20.8458 54.6945C20.793 54.5399 20.7943 54.3719 20.8494 54.2181C20.9031 54.0635 21.0082 53.9319 21.1471 53.8453C21.2861 53.7587 21.4505 53.7224 21.613 53.7423C22.2472 53.8154 22.8755 53.8515 23.4815 53.8515C26.4317 53.8515 29.243 53.0583 31.7109 51.5428C30.2246 51.184 28.8557 50.4487 27.7359 49.4076C26.6161 48.3665 25.7832 47.0546 25.3174 45.5984C25.2792 45.4788 25.2728 45.3514 25.2986 45.2286C25.3245 45.1058 25.3818 44.9918 25.4649 44.8977C25.548 44.8035 25.6544 44.7328 25.7734 44.6926C25.8924 44.6523 26.0199 44.644 26.1431 44.6685C26.2791 44.6945 26.4157 44.717 26.5517 44.7358C24.0404 43.1356 22.4113 40.3221 22.4113 37.2071V37.1037C22.4114 36.9779 22.4443 36.8542 22.5068 36.745C22.5693 36.6358 22.6592 36.5448 22.7676 36.4809C22.8761 36.4171 22.9993 36.3827 23.1251 36.3811C23.251 36.3795 23.375 36.4107 23.4851 36.4718C23.7996 36.646 24.1257 36.7971 24.4605 36.9244C23.1755 35.3363 22.4755 33.3548 22.4778 31.3119C22.4778 29.7371 22.895 28.1868 23.6839 26.8296C23.7426 26.7284 23.825 26.643 23.924 26.5807C24.023 26.5183 24.1356 26.4809 24.2522 26.4717C24.3688 26.4624 24.4859 26.4816 24.5935 26.5276C24.7011 26.5736 24.7959 26.6449 24.8698 26.7356C28.7159 31.4515 34.3068 34.4182 40.3207 34.9649C40.2781 34.6066 40.2568 34.2461 40.257 33.8853C40.257 28.9706 44.2564 24.972 49.172 24.972C51.4909 24.972 53.7346 25.8867 55.3898 27.4934C57.0074 27.1333 58.5574 26.5185 59.9821 25.672C60.0176 25.5604 60.0797 25.4591 60.1631 25.3769C60.2464 25.2946 60.3484 25.2338 60.4604 25.1997C60.5725 25.1656 60.6911 25.1592 60.8061 25.1811C60.9211 25.2029 61.0291 25.2524 61.1208 25.3253C61.2125 25.3981 61.2851 25.4921 61.3325 25.5992C61.3798 25.7063 61.4004 25.8233 61.3925 25.9401C61.3846 26.0569 61.3485 26.1701 61.2872 26.2699C61.2259 26.3696 61.1413 26.453 61.0407 26.5129C60.6866 27.623 60.1164 28.6521 59.3631 29.5411C59.9759 29.356 60.5765 29.1329 61.1614 28.873C61.3047 28.8097 61.4646 28.7947 61.6172 28.8301C61.7697 28.8656 61.9066 28.9496 62.0073 29.0695C62.108 29.1895 62.1671 29.3388 62.1756 29.4952C62.1841 29.6516 62.1416 29.8065 62.0544 29.9366Z" fill="#231F20"/>
</svg>
